<svg xmlns="http://www.w3.org/2000/svg" width="173" height="20" fill="none"><path fill="#003648" d="M0 3a3 3 0 0 1 3-3h95v20H3a3 3 0 0 1-3-3V3Z"/><path fill="#fff" fill-rule="evenodd" d="M21.137 5c.478 0 .865.386.865.862v7.858h.875v.597a.685.685 0 0 1-.686.683H8.686A.685.685 0 0 1 8 14.317v-.597h.875V5.862c0-.476.387-.862.865-.862h11.397Zm-.01.872H9.75v7.848h4.376c0 .225.183.408.41.408h1.806c.226 0 .41-.183.41-.408h4.375V5.872Zm9.418 2.237c.636 0 1.17.134 1.603.402.433.268.758.618.975 1.05l-1.635.49c-.216-.348-.534-.522-.953-.522-.35 0-.641.129-.875.386-.234.258-.351.602-.351 1.034 0 .216.031.412.094.59.063.177.15.328.262.454.112.125.243.223.393.292.15.07.31.105.477.105.21 0 .401-.05.576-.152a.974.974 0 0 0 .388-.391l1.634.5c-.203.425-.526.773-.97 1.045-.442.271-.982.407-1.618.407-.46 0-.875-.078-1.242-.235a2.847 2.847 0 0 1-.932-.627 2.64 2.64 0 0 1-.581-.908 2.978 2.978 0 0 1-.2-1.08c0-.376.067-.736.2-1.08a2.68 2.68 0 0 1 .576-.909 2.73 2.73 0 0 1 .927-.621c.367-.153.784-.23 1.252-.23Zm5.91 0c.467 0 .883.078 1.246.235A2.69 2.69 0 0 1 39.2 9.879a3.05 3.05 0 0 1 .005 2.161c-.128.344-.319.647-.57.908-.252.261-.56.468-.928.621-.366.153-.784.23-1.252.23-.468 0-.885-.077-1.252-.23a2.62 2.62 0 0 1-1.498-1.53 3.055 3.055 0 0 1-.194-1.08c0-.375.065-.736.194-1.08.13-.345.32-.648.571-.909.252-.26.56-.47.927-.626a3.16 3.16 0 0 1 1.252-.235Zm9.314-2.036v5.742c0 .167.03.284.094.35.063.066.175.106.335.12v1.41a4.05 4.05 0 0 1-.807.083c-.586-.014-.922-.247-1.005-.7l-.032-.292a1.943 1.943 0 0 1-.796.762 2.3 2.3 0 0 1-1.058.25c-.378 0-.725-.07-1.043-.213a2.42 2.42 0 0 1-.822-.6 2.825 2.825 0 0 1-.54-.903 3.195 3.195 0 0 1-.194-1.133c0-.397.06-.77.178-1.117a2.74 2.74 0 0 1 .503-.903c.217-.254.473-.455.77-.6.297-.147.624-.22.98-.22.377 0 .723.09 1.037.272.315.18.556.424.723.73V6.073h1.677ZM82.71 8.11c.468 0 .884.078 1.247.235a2.689 2.689 0 0 1 1.499 1.535c.132.344.198.704.198 1.08 0 .376-.064.736-.194 1.08a2.617 2.617 0 0 1-1.498 1.53c-.366.153-.784.23-1.252.23-.468 0-.885-.077-1.252-.23a2.62 2.62 0 0 1-1.498-1.53 3.055 3.055 0 0 1-.194-1.08c0-.375.065-.736.194-1.08.129-.345.32-.648.571-.909.251-.26.56-.47.927-.626a3.16 3.16 0 0 1 1.252-.235ZM77.976 6.47v1.743h1.12v1.264h-1.12v2.286c0 .181.047.312.14.392.095.08.212.12.352.12.119 0 .244-.021.377-.063.133-.042.252-.087.356-.136l.315 1.326c-.23.098-.493.188-.786.272a3.275 3.275 0 0 1-.901.125c-.21 0-.407-.026-.592-.078a1.321 1.321 0 0 1-.487-.251 1.17 1.17 0 0 1-.33-.454 1.718 1.718 0 0 1-.121-.679v-2.86h-.702V8.213h.702V6.47h1.677ZM49.76 8.11c.467 0 .883.076 1.246.229.363.153.67.36.922.621.252.26.442.562.571.903.13.341.194.7.194 1.075 0 .098-.004.193-.01.287a2.024 2.024 0 0 1-.032.246h-4.065c.028.369.162.649.403.84.241.192.515.287.823.287.244 0 .48-.059.707-.177.227-.119.379-.279.456-.48l1.425.396a2.558 2.558 0 0 1-1.006 1.055c-.454.271-1 .407-1.635.407-.46 0-.874-.075-1.241-.224a2.752 2.752 0 0 1-.932-.611 2.604 2.604 0 0 1-.582-.893 2.867 2.867 0 0 1-.2-1.06c0-.396.067-.77.2-1.122.132-.351.325-.66.576-.924.252-.264.56-.473.927-.626.367-.153.784-.23 1.252-.23Zm16.113 0c.468 0 .884.076 1.247.229.363.153.67.36.922.621.252.26.442.562.57.903.13.341.195.7.195 1.075 0 .098-.004.193-.01.287a2.024 2.024 0 0 1-.032.246h-4.065c.028.369.162.649.403.84.241.192.515.287.823.287.244 0 .48-.059.707-.177.227-.119.379-.279.456-.48l1.424.396a2.558 2.558 0 0 1-1.005 1.055c-.454.271-1 .407-1.635.407-.46 0-.874-.075-1.241-.224a2.754 2.754 0 0 1-.933-.611 2.607 2.607 0 0 1-.581-.893 2.871 2.871 0 0 1-.2-1.06c0-.396.067-.77.2-1.122.132-.351.325-.66.576-.924.252-.264.56-.473.927-.626.367-.153.784-.23 1.252-.23Zm7.334 0c.356 0 .645.064.865.192.22.13.389.296.508.501.118.206.197.43.235.674.039.243.058.48.058.71v3.507h-1.676v-3.08c0-.361-.068-.624-.204-.787a.668.668 0 0 0-.54-.246.973.973 0 0 0-.361.073 1.345 1.345 0 0 0-.346.204c-.109.087-.208.19-.299.308a1.38 1.38 0 0 0-.21.386v3.142h-1.676v-5.48h1.509v.918a2 2 0 0 1 .859-.757c.37-.177.796-.266 1.278-.266Zm-12.698 0c.35 0 .63.064.844.192.212.13.378.296.497.501.119.206.197.43.236.674.038.243.058.48.058.71v3.507h-1.677v-3.08c0-.361-.065-.624-.194-.787a.627.627 0 0 0-.519-.246c-.223 0-.441.09-.654.272a1.563 1.563 0 0 0-.467.7v3.141h-1.676v-3.08c0-.361-.064-.624-.194-.787a.628.628 0 0 0-.518-.246c-.224 0-.442.089-.655.266a1.516 1.516 0 0 0-.466.705v3.142h-1.676v-5.48h1.508v.918c.203-.334.478-.588.828-.762.35-.174.754-.26 1.215-.26.224 0 .422.027.597.083.175.055.323.132.446.23a1.383 1.383 0 0 1 .477.752c.202-.342.475-.605.817-.79a2.436 2.436 0 0 1 1.173-.276Zm29.44.03v1.504a3.18 3.18 0 0 0-1.094.198c-.325.125-.564.313-.718.564v3.288h-1.676v-5.48h1.54V9.32c.196-.369.442-.656.739-.861.297-.205.613-.315.948-.329.14 0 .227.004.262.01Zm-71.72 1.4c.871.388 1.539 1.364 1.734 2.574.059.366-.205.7-.568.732l-.055.002h-3.888a.632.632 0 0 1-.623-.734c.195-1.21.862-2.186 1.733-2.573a1.706 1.706 0 0 0 1.668 0ZM13.261 11.8a.437.437 0 0 1 .048.87l-.048.002h-1.77a.437.437 0 0 1-.048-.87l.047-.002h1.771Zm29.605-2.27c-.181 0-.347.04-.497.12a1.33 1.33 0 0 0-.393.318 1.409 1.409 0 0 0-.257.46c-.06.174-.089.358-.089.553 0 .41.122.748.367 1.013.244.264.562.396.953.396.23 0 .45-.067.66-.203.21-.136.374-.322.493-.559V10.48a1.509 1.509 0 0 0-.508-.684 1.191 1.191 0 0 0-.729-.266Zm39.845 0a1.145 1.145 0 0 0-.875.397 1.396 1.396 0 0 0-.256.454c-.063.177-.095.37-.095.58 0 .43.116.777.346 1.038.23.261.524.392.88.392a1.11 1.11 0 0 0 .865-.397c.108-.126.194-.277.256-.454.063-.178.095-.371.095-.58 0-.431-.116-.777-.346-1.039a1.112 1.112 0 0 0-.87-.391Zm-46.257 0a1.145 1.145 0 0 0-.875.397 1.403 1.403 0 0 0-.256.454c-.063.177-.094.37-.094.58 0 .43.115.777.345 1.038.23.261.524.392.88.392a1.11 1.11 0 0 0 .865-.397c.108-.126.194-.277.256-.454.063-.178.095-.371.095-.58 0-.431-.115-.777-.346-1.039a1.111 1.111 0 0 0-.87-.391Zm-22.766.655a.437.437 0 0 1 .048.87l-.048.002H11.5a.437.437 0 0 1-.047-.87l.048-.002h2.187Zm52.165-.874c-.328 0-.599.102-.812.308-.213.205-.337.478-.371.82h2.367c-.035-.349-.16-.624-.377-.826a1.139 1.139 0 0 0-.807-.302Zm-16.114 0c-.328 0-.599.102-.812.308-.213.205-.337.478-.371.82h2.367c-.035-.349-.16-.624-.377-.826a1.139 1.139 0 0 0-.807-.302Zm-36.926-.742h1.751a.437.437 0 0 1 .047.87l-.048.003h-2.198l-.011-.001H11.5a.437.437 0 0 1-.048-.87l.048-.002h1.312Zm4.584-1.848a1.31 1.31 0 0 1 1.312 1.308 1.31 1.31 0 0 1-1.312 1.308 1.31 1.31 0 0 1-1.313-1.308 1.31 1.31 0 0 1 1.313-1.308Zm-5.678.233h2.844a.437.437 0 0 1 .047.87l-.047.002H11.5a.437.437 0 0 1-.047-.869l.048-.003h3.062-2.844Z" clip-rule="evenodd"/><path fill="#F1F1F1" d="M98 0h72a3 3 0 0 1 3 3v14a3 3 0 0 1-3 3H98V0Z"/><path fill="#003648" d="M110.945 9.512h2.912v4.166a9.372 9.372 0 0 1-1.382.328c-.469.074-1.012.111-1.629.111-1.297 0-2.307-.385-3.03-1.154-.722-.773-1.084-1.856-1.084-3.246 0-.89.178-1.67.534-2.338a3.623 3.623 0 0 1 1.546-1.535c.672-.356 1.459-.533 2.362-.533.914 0 1.765.168 2.555.503l-.387.88c-.774-.329-1.518-.493-2.233-.493-1.043 0-1.857.31-2.443.932-.586.62-.879 1.482-.879 2.584 0 1.156.281 2.033.844 2.63.566.598 1.396.897 2.49.897.594 0 1.174-.068 1.74-.205v-2.637h-1.916v-.89ZM118.486 14.117c-.949 0-1.699-.289-2.25-.867-.547-.578-.82-1.38-.82-2.408 0-1.035.254-1.858.762-2.467.511-.61 1.197-.914 2.056-.914.805 0 1.442.266 1.911.797.468.527.703 1.224.703 2.092v.615h-4.424c.019.754.209 1.326.568 1.717.363.39.873.586 1.529.586.692 0 1.375-.145 2.051-.434v.867c-.343.149-.67.254-.978.317-.305.066-.674.1-1.108.1Zm-.263-5.842c-.516 0-.928.168-1.237.504-.304.336-.484.801-.539 1.395h3.358c0-.613-.137-1.082-.41-1.406-.274-.329-.665-.493-1.172-.493ZM124.586 13.315c.172 0 .338-.012.498-.036.16-.027.287-.054.381-.082v.744c-.106.051-.262.092-.469.123a3.266 3.266 0 0 1-.551.053c-1.242 0-1.863-.654-1.863-1.963v-3.82h-.92v-.469l.92-.404.41-1.371h.563v1.488h1.863v.756h-1.863v3.78c0 .386.091.683.275.89.184.207.436.31.756.31ZM136.521 14h-.996V9.969h-4.511V14h-.996V5.434h.996v3.644h4.511V5.434h.996V14ZM141.443 14.117c-.949 0-1.699-.289-2.25-.867-.547-.578-.82-1.38-.82-2.408 0-1.035.254-1.858.762-2.467.511-.61 1.197-.914 2.056-.914.805 0 1.442.266 1.911.797.468.527.703 1.224.703 2.092v.615h-4.424c.019.754.209 1.326.568 1.717.363.39.873.586 1.53.586.691 0 1.375-.145 2.05-.434v.867c-.343.149-.67.254-.978.317-.305.066-.674.1-1.108.1Zm-.263-5.842c-.516 0-.928.168-1.237.504-.304.336-.484.801-.539 1.395h3.358c0-.613-.137-1.082-.41-1.406-.274-.329-.664-.493-1.172-.493ZM146.441 14h-.972V4.883h.972V14ZM151.492 14.117c-.418 0-.801-.076-1.148-.228a2.178 2.178 0 0 1-.867-.715h-.071c.047.375.071.73.071 1.066v2.643h-.973V7.578h.791l.135.879h.047c.25-.352.541-.605.873-.762a2.65 2.65 0 0 1 1.142-.234c.852 0 1.508.29 1.969.873.465.582.697 1.398.697 2.45 0 1.054-.236 1.874-.709 2.46-.469.582-1.121.873-1.957.873Zm-.14-5.83c-.657 0-1.131.182-1.424.545-.293.363-.444.941-.451 1.734v.217c0 .902.15 1.549.451 1.94.301.386.783.58 1.447.58.555 0 .988-.225 1.301-.674.316-.45.474-1.069.474-1.857 0-.801-.158-1.415-.474-1.84-.313-.43-.754-.645-1.324-.645Z"/><path fill="#003648" fill-rule="evenodd" d="m164.333 10-3.5-3.5v7l3.5-3.5Z" clip-rule="evenodd"/></svg>